<?xml version="1.0" encoding="UTF-8" ?>
<!DOCTYPE svg PUBLIC "-//W3C//DTD SVG 1.1//EN" "http://www.w3.org/Graphics/SVG/1.1/DTD/svg11.dtd">
<svg width="200pt" height="200pt" viewBox="0 0 200 200" version="1.1" xmlns="http://www.w3.org/2000/svg">
<g id="#424242ff">
<path fill="#424242" opacity="1.00" d=" M 90.44 17.44 C 97.72 10.92 107.63 8.47 117.13 7.52 C 126.35 6.94 135.61 7.37 144.77 8.47 C 144.72 18.16 144.43 27.85 144.27 37.53 C 137.16 37.64 130.05 37.51 122.95 37.57 C 119.68 37.59 116.15 38.28 113.66 40.54 C 111.19 43.38 110.73 47.34 110.70 50.97 C 110.70 58.83 110.70 66.69 110.72 74.55 C 122.06 74.71 133.41 74.67 144.75 74.56 C 145.04 85.00 143.81 95.39 143.66 105.82 C 132.70 105.86 121.73 105.76 110.77 105.85 C 110.63 135.13 110.77 164.40 110.71 193.68 C 99.59 193.65 88.47 193.70 77.35 193.66 C 77.24 164.39 77.44 135.12 77.25 105.85 C 69.57 105.78 61.88 105.83 54.20 105.84 C 54.31 95.47 54.24 85.10 54.23 74.73 C 61.94 74.48 69.65 74.73 77.36 74.58 C 77.40 64.72 77.10 54.85 77.54 45.00 C 77.78 34.55 82.58 24.33 90.44 17.44 Z" />
</g>
</svg>
