<?xml version="1.0" encoding="UTF-8" ?>
<!DOCTYPE svg PUBLIC "-//W3C//DTD SVG 1.1//EN" "http://www.w3.org/Graphics/SVG/1.1/DTD/svg11.dtd">
<svg width="200pt" height="200pt" viewBox="0 0 200 200" version="1.1" xmlns="http://www.w3.org/2000/svg">
<g id="#424242ff">
<path fill="#424242" opacity="1.00" d=" M 67.02 6.21 C 74.31 4.13 81.72 6.61 89.02 7.26 C 94.75 7.72 100.49 8.13 106.23 8.47 C 106.42 18.79 106.34 29.12 106.30 39.44 C 98.68 38.19 90.86 36.62 83.13 37.91 C 79.16 39.49 77.63 44.21 76.79 48.06 C 75.92 55.53 76.63 63.10 77.54 70.54 C 90.18 70.72 102.82 70.70 115.46 70.55 C 115.94 60.69 115.70 50.81 115.70 40.94 C 115.67 31.91 118.97 22.83 125.35 16.36 C 130.50 10.63 137.72 7.07 145.23 5.70 C 152.50 4.54 159.68 6.73 166.90 7.31 C 172.08 7.73 177.26 8.33 182.45 8.74 C 182.28 19.06 182.35 29.39 182.40 39.72 C 174.81 37.96 166.96 36.72 159.17 37.66 C 155.12 38.27 152.87 42.45 152.66 46.22 C 152.00 54.31 152.77 62.43 152.49 70.54 C 161.84 70.65 171.20 70.72 180.55 70.74 C 180.72 80.96 180.65 91.19 180.61 101.42 C 171.33 101.31 162.05 101.65 152.77 101.72 C 152.13 132.61 152.52 163.51 152.51 194.41 C 140.23 194.52 127.95 194.61 115.68 194.34 C 115.70 163.35 115.79 132.36 115.64 101.37 C 102.62 101.16 89.61 101.44 76.60 101.75 C 76.40 132.65 76.59 163.56 76.50 194.46 C 64.78 194.58 53.06 194.36 41.35 194.60 C 41.27 163.51 41.18 132.40 41.40 101.30 C 34.35 101.24 27.30 101.38 20.27 100.79 C 20.70 90.90 19.67 81.04 19.74 71.15 C 26.38 71.43 33.07 71.66 39.67 70.67 C 40.56 63.14 40.33 55.55 40.63 47.99 C 40.89 40.62 40.04 32.86 43.04 25.91 C 47.55 16.19 56.56 8.66 67.02 6.21 Z" />
</g>
</svg>
