<?xml version="1.0" encoding="UTF-8" standalone="no"?>
<svg
   xmlns:dc="http://purl.org/dc/elements/1.1/"
   xmlns:cc="http://creativecommons.org/ns#"
   xmlns:rdf="http://www.w3.org/1999/02/22-rdf-syntax-ns#"
   xmlns:svg="http://www.w3.org/2000/svg"
   xmlns="http://www.w3.org/2000/svg"
   xmlns:sodipodi="http://sodipodi.sourceforge.net/DTD/sodipodi-0.dtd"
   xmlns:inkscape="http://www.inkscape.org/namespaces/inkscape"
   width="200pt"
   height="200pt"
   viewBox="0 0 200 200"
   version="1.1"
   id="svg2"
   inkscape:version="0.48.3.1 r9886"
   sodipodi:docname="10.svg">
  <metadata
     id="metadata13">
    <rdf:RDF>
      <cc:Work
         rdf:about="">
        <dc:format>image/svg+xml</dc:format>
        <dc:type
           rdf:resource="http://purl.org/dc/dcmitype/StillImage" />
      </cc:Work>
    </rdf:RDF>
  </metadata>
  <defs
     id="defs11" />
  <sodipodi:namedview
     pagecolor="#ffffff"
     bordercolor="#666666"
     borderopacity="1"
     objecttolerance="10"
     gridtolerance="10"
     guidetolerance="10"
     inkscape:pageopacity="0"
     inkscape:pageshadow="2"
     inkscape:window-width="643"
     inkscape:window-height="480"
     id="namedview9"
     showgrid="false"
     inkscape:zoom="0.944"
     inkscape:cx="125"
     inkscape:cy="125"
     inkscape:window-x="0"
     inkscape:window-y="24"
     inkscape:window-maximized="0"
     inkscape:current-layer="svg2" />
  <g
     id="#424242ff">
    <path
       id="path7"
       d="m 154.91,20.27 c 2.61,-0.03 5.23,-0.05 7.85,-0.07 -0.1,10.69 0.01,21.38 -0.06,32.07 10.7,-0.1 21.39,0.04 32.09,-0.07 -0.06,2.53 -0.06,5.07 0,7.61 -10.7,-0.12 -21.39,0.02 -32.09,-0.08 0.06,10.69 -0.02,21.39 0.05,32.08 -2.56,0.27 -5.13,0.3 -7.68,0.06 -0.35,-10.7 -0.04,-21.41 -0.16,-32.12 -10.6,0.03 -21.2,0 -31.8,0.02 -0.01,-2.51 -0.01,-5.03 0,-7.54 10.6,0.02 21.2,-0.01 31.8,0.02 0.01,-10.66 0.02,-21.32 0,-31.98 z M 24.44,36.41 c 8.55,-9.92 21.37,-16.39 34.58,-16.17 16.69,0.02 33.37,-0.06 50.05,0.05 -4.03,1.91 -7.27,5.05 -11.03,7.38 -5.07,0.3 -10.16,-0.11 -15.24,0.2 2.94,2.1 6.26,3.85 8.44,6.82 5.89,7.68 8.28,17.94 6.5,27.43 -1.59,8.47 -7.29,15.57 -14.02,20.67 -3.68,3.03 -8.08,6.2 -8.73,11.32 -1.19,4.43 1.97,8.13 4.78,11.1 5.87,6.56 14.27,10.42 19.34,17.76 5.68,7.61 6.49,17.7 5.29,26.84 -2.03,10.59 -10.23,18.97 -19.43,23.98 -11.77,6.24 -25.54,6.59 -38.52,5.55 C 33.83,177.76 20.32,174.18 11.39,164.53 5.17,158 4.85,147.65 8.62,139.8 c 4.2,-8.48 11.95,-14.71 20.29,-18.87 10.63,-5.54 22.88,-5.82 34.58,-5.55 -3.62,-3.55 -6.79,-8.1 -6.98,-13.34 C 56.24,98.56 57.89,95.4 58.7,92.11 49.5,92.52 39.79,91.15 32.11,85.71 24,80.07 18.22,71.03 17.14,61.15 c -1.56,-8.8 1.45,-18.08 7.3,-24.74 m 22.31,-8.5 c -6.53,2.48 -10.52,9.11 -12.01,15.67 -1.82,10.19 0.01,21.15 5.79,29.82 3.78,5.68 8.88,10.96 15.54,13.05 5.7,2.01 12.67,0.98 17.03,-3.36 5.8,-5.28 8.14,-13.45 7.75,-21.12 C 80.86,49.65 75.01,37.21 64.6,30.34 59.37,27.08 52.65,25.71 46.75,27.91 m 7.85,91.93 c -10.27,0.99 -20.59,5.7 -26.92,14.02 -5.93,7.63 -4.84,19.03 1.09,26.33 6.23,7.85 16.33,12.07 26.25,12.13 7.72,0.11 15.65,-0.64 22.89,-3.49 8.74,-3.33 15.13,-12.37 14.63,-21.82 0.56,-6.96 -3.24,-13.64 -8.93,-17.47 -3.81,-2.56 -7.36,-5.52 -11.31,-7.84 -5.65,-1.98 -11.76,-2.41 -17.7,-1.86 z" />
  </g>
</svg>
