<?xml version="1.0" encoding="UTF-8" standalone="no"?>
<svg
   xmlns:dc="http://purl.org/dc/elements/1.1/"
   xmlns:cc="http://creativecommons.org/ns#"
   xmlns:rdf="http://www.w3.org/1999/02/22-rdf-syntax-ns#"
   xmlns:svg="http://www.w3.org/2000/svg"
   xmlns="http://www.w3.org/2000/svg"
   xmlns:sodipodi="http://sodipodi.sourceforge.net/DTD/sodipodi-0.dtd"
   xmlns:inkscape="http://www.inkscape.org/namespaces/inkscape"
   width="200pt"
   height="200pt"
   viewBox="0 0 200 200"
   version="1.1"
   id="svg2"
   inkscape:version="0.48.3.1 r9886"
   sodipodi:docname="liveinternet.svg">
  <metadata
     id="metadata15">
    <rdf:RDF>
      <cc:Work
         rdf:about="">
        <dc:format>image/svg+xml</dc:format>
        <dc:type
           rdf:resource="http://purl.org/dc/dcmitype/StillImage" />
      </cc:Work>
    </rdf:RDF>
  </metadata>
  <defs
     id="defs13" />
  <sodipodi:namedview
     pagecolor="#ffffff"
     bordercolor="#666666"
     borderopacity="1"
     objecttolerance="10"
     gridtolerance="10"
     guidetolerance="10"
     inkscape:pageopacity="0"
     inkscape:pageshadow="2"
     inkscape:window-width="643"
     inkscape:window-height="480"
     id="namedview11"
     showgrid="false"
     inkscape:zoom="0.944"
     inkscape:cx="125"
     inkscape:cy="125"
     inkscape:window-x="0"
     inkscape:window-y="24"
     inkscape:window-maximized="0"
     inkscape:current-layer="svg2" />
  <g
     id="#424242ff">
    <path
       id="path9"
       d="m 137.76,77.76 c 7.91,-0.02 15.82,-0.01 23.73,-0.01 0.02,27.83 0.02,55.67 0,83.5 -7.91,0 -15.82,0.01 -23.73,-0.01 -0.01,-27.83 -0.01,-55.65 0,-83.48 z m 0.49,-38.25 c 7.58,-0.02 15.16,-0.01 22.75,-0.01 0,7.5 0,15 0,22.5 -7.59,0 -15.17,0.01 -22.75,-0.01 0,-7.49 0,-14.99 0,-22.48 z m -99,-1 c 9.33,-0.02 18.66,-0.02 27.99,0 0.02,32.49 0.01,64.99 0.01,97.48 12.33,0.02 24.66,0 37,0.02 0,8.41 0.01,16.82 -0.01,25.23 -21.66,0.02 -43.32,0 -64.98,0.01 C 39.23,120.34 39.25,79.42 39.25,38.51 z" />
  </g>
</svg>
