<?xml version="1.0" encoding="UTF-8" ?>
<!DOCTYPE svg PUBLIC "-//W3C//DTD SVG 1.1//EN" "http://www.w3.org/Graphics/SVG/1.1/DTD/svg11.dtd">
<svg width="200pt" height="200pt" viewBox="0 0 200 200" version="1.1" xmlns="http://www.w3.org/2000/svg">
<g id="#424242ff">
<path fill="#424242" opacity="1.00" d=" M 66.02 7.88 C 72.66 5.64 79.96 6.95 86.32 9.49 C 90.05 10.95 92.17 14.51 94.39 17.61 C 100.97 26.69 107.71 35.67 114.17 44.84 C 130.84 66.86 146.74 89.46 163.81 111.18 C 167.54 115.51 167.11 121.57 168.00 126.88 C 168.76 136.26 170.95 145.44 171.98 154.79 C 173.82 168.18 175.84 181.54 177.63 194.94 C 166.79 190.67 156.21 185.73 145.36 181.45 C 134.15 176.18 122.68 171.49 111.30 166.58 C 107.61 164.88 103.06 164.03 100.69 160.39 C 92.43 148.10 83.04 136.62 74.63 124.42 C 58.70 102.69 42.77 80.94 26.82 59.23 C 25.03 56.21 23.22 52.74 23.90 49.11 C 25.48 40.86 28.44 32.53 34.36 26.37 C 42.64 17.07 54.14 11.17 66.02 7.88 M 65.47 18.20 C 56.09 19.90 48.38 26.29 42.21 33.23 C 38.11 38.20 33.65 44.55 35.87 51.33 C 37.86 49.45 39.53 47.29 41.10 45.06 C 46.91 36.93 54.84 30.52 63.42 25.50 C 68.18 22.65 73.84 21.87 78.63 19.07 C 74.53 17.05 69.83 17.34 65.47 18.20 M 61.95 36.81 C 54.61 41.33 49.07 48.20 44.45 55.36 C 43.13 57.84 41.09 61.28 43.18 63.87 C 45.73 67.15 48.13 70.56 50.95 73.63 C 53.37 70.70 55.13 67.31 57.28 64.19 C 65.30 53.59 76.39 45.10 89.27 41.45 C 91.32 40.60 94.17 40.47 95.16 38.17 C 92.62 34.28 90.13 30.28 86.80 27.00 C 77.75 27.60 69.38 31.84 61.95 36.81 M 76.35 58.02 C 77.87 61.77 80.67 64.75 83.04 67.95 C 91.86 79.77 100.56 91.69 109.67 103.30 C 112.61 106.86 115.02 110.80 117.46 114.72 C 119.37 118.22 123.67 118.90 127.25 119.44 C 135.68 120.35 144.89 120.02 152.17 115.17 C 137.23 93.82 121.05 73.34 105.95 52.10 C 104.79 50.43 103.40 48.94 101.98 47.49 C 92.78 48.32 82.73 50.87 76.35 58.02 M 57.70 81.94 C 58.90 84.11 60.29 86.17 61.85 88.11 C 71.11 99.91 79.57 112.32 88.90 124.07 C 96.02 133.20 102.62 142.75 110.03 151.63 C 115.23 144.43 117.34 135.13 116.88 126.34 C 116.58 119.51 111.55 114.52 107.75 109.34 C 99.98 98.47 91.59 88.06 83.84 77.18 C 80.00 72.17 76.52 66.84 72.00 62.40 C 65.43 67.29 60.87 74.49 57.70 81.94 M 148.88 122.54 C 140.54 125.71 131.52 124.32 122.84 124.76 C 122.25 130.90 121.96 137.16 119.88 143.04 C 118.59 147.38 116.13 151.22 113.90 155.12 C 118.74 158.35 124.27 160.28 129.56 162.63 C 137.19 165.84 144.60 169.53 152.19 172.82 C 155.54 170.49 158.75 167.93 162.46 166.17 C 162.60 161.68 161.40 157.31 160.91 152.87 C 159.24 142.03 158.24 131.08 156.48 120.26 C 153.72 119.83 151.40 121.79 148.88 122.54 Z" />
</g>
</svg>
