<?xml version="1.0" encoding="UTF-8" standalone="no"?>
<svg
   xmlns:dc="http://purl.org/dc/elements/1.1/"
   xmlns:cc="http://creativecommons.org/ns#"
   xmlns:rdf="http://www.w3.org/1999/02/22-rdf-syntax-ns#"
   xmlns:svg="http://www.w3.org/2000/svg"
   xmlns="http://www.w3.org/2000/svg"
   xmlns:sodipodi="http://sodipodi.sourceforge.net/DTD/sodipodi-0.dtd"
   xmlns:inkscape="http://www.inkscape.org/namespaces/inkscape"
   width="200pt"
   height="200pt"
   viewBox="0 0 200 200"
   version="1.1"
   id="svg2"
   inkscape:version="0.48.3.1 r9886"
   sodipodi:docname="09.svg">
  <metadata
     id="metadata21">
    <rdf:RDF>
      <cc:Work
         rdf:about="">
        <dc:format>image/svg+xml</dc:format>
        <dc:type
           rdf:resource="http://purl.org/dc/dcmitype/StillImage" />
      </cc:Work>
    </rdf:RDF>
  </metadata>
  <defs
     id="defs19" />
  <sodipodi:namedview
     pagecolor="#ffffff"
     bordercolor="#666666"
     borderopacity="1"
     objecttolerance="10"
     gridtolerance="10"
     guidetolerance="10"
     inkscape:pageopacity="0"
     inkscape:pageshadow="2"
     inkscape:window-width="643"
     inkscape:window-height="480"
     id="namedview17"
     showgrid="false"
     inkscape:zoom="0.944"
     inkscape:cx="125"
     inkscape:cy="125"
     inkscape:window-x="0"
     inkscape:window-y="24"
     inkscape:window-maximized="0"
     inkscape:current-layer="svg2" />
  <g
     id="#424242ff">
    <path
       id="path15"
       d="m 107.37,127.6 c 6.55,-1.16 13.59,0.1 19.14,3.83 8.8,5.67 13.64,17.11 11.03,27.33 -2.21,9.67 -10.33,17.72 -20.12,19.57 -9.82,1.98 -20.66,-2.2 -26.35,-10.51 -4.94,-6.78 -6.07,-16.02 -3.08,-23.83 3.04,-8.33 10.66,-14.78 19.38,-16.39 z M 54.4,112.57 c 7.48,-1.25 15.56,0.65 21.34,5.68 6.27,5.16 9.81,13.39 9.11,21.5 -0.71,13.73 -14.07,25.38 -27.81,23.88 -9.35,-0.39 -17.65,-6.81 -21.56,-15.12 -3.2,-7.01 -3.02,-15.55 0.53,-22.4 3.77,-6.87 10.58,-12.2 18.39,-13.54 z m 95.11,-23.73 c 7.06,-1.06 14.27,1.57 19.9,5.74 9.79,7.75 12.34,22.9 5.65,33.44 -5.46,8.89 -16.59,13.99 -26.88,11.85 -12.54,-1.84 -22.1,-14.36 -20.99,-26.91 0.31,-12.12 10.5,-22.48 22.32,-24.12 z M 41.38,60.51 c 11.9,-3.44 25.63,3.17 30.37,14.62 3.32,7.62 2.92,16.98 -1.68,24.01 C 65.21,106.86 56.12,111.69 47,111.28 40.96,110.87 35.11,108.4 30.53,104.47 23.38,98.08 20.44,87.48 23.22,78.31 25.5,69.65 32.82,62.83 41.38,60.51 z M 137.42,35.8 c 12.12,-3.06 25.44,4.34 29.78,15.93 3.63,9.51 1.15,21.14 -6.46,28.02 -6.75,6.75 -17.39,8.66 -26.33,5.7 -5.1,-1.58 -9.15,-5.35 -12.4,-9.45 -4.64,-5.97 -5.79,-14.11 -4.16,-21.37 2.28,-9.3 10.3,-16.71 19.57,-18.83 z M 84.4,21.59 c 7.03,-1.17 14.67,0.22 20.37,4.64 8.01,5.97 12.18,16.81 9.73,26.56 -2.55,11.46 -13.67,20.4 -25.48,19.99 C 75.75,72.89 63.56,61.35 63.39,48.01 62.67,35.61 72.18,23.72 84.4,21.59 z" />
  </g>
</svg>
