<?xml version="1.0" encoding="UTF-8" ?>
<!DOCTYPE svg PUBLIC "-//W3C//DTD SVG 1.1//EN" "http://www.w3.org/Graphics/SVG/1.1/DTD/svg11.dtd">
<svg width="200pt" height="200pt" viewBox="0 0 200 200" version="1.1" xmlns="http://www.w3.org/2000/svg">
<g id="#424242ff">
<path fill="#424242" opacity="1.00" d=" M 77.29 20.35 C 86.53 17.21 96.32 16.34 106.00 15.70 C 118.18 16.26 130.62 17.84 141.73 23.19 C 158.84 30.94 172.88 46.18 177.46 64.60 C 181.53 81.10 180.37 99.23 172.72 114.55 C 167.62 123.99 160.66 132.92 151.13 138.20 C 143.27 142.49 133.11 144.49 124.84 140.17 C 118.85 136.88 115.97 130.22 115.25 123.69 C 112.69 127.28 110.45 131.16 107.19 134.19 C 99.44 142.30 86.34 144.78 76.24 139.81 C 68.40 136.09 62.92 128.39 60.96 120.04 C 55.78 98.67 64.28 75.03 80.94 60.94 C 90.15 53.50 104.26 50.77 114.67 57.33 C 119.21 60.03 121.13 65.16 123.56 69.56 C 125.39 65.71 126.12 61.48 127.41 57.44 C 133.52 57.35 139.62 57.35 145.73 57.43 C 141.03 74.50 136.28 91.56 131.74 108.67 C 130.66 113.30 129.02 118.79 132.07 123.03 C 134.09 126.17 138.31 127.00 141.71 125.93 C 147.72 124.31 152.04 119.45 155.65 114.66 C 162.92 104.72 165.07 92.01 164.64 79.94 C 164.67 67.26 159.98 54.19 150.33 45.67 C 138.73 35.65 123.16 31.00 107.97 31.26 C 91.85 31.03 75.34 35.46 62.52 45.49 C 48.15 56.37 38.34 73.10 35.98 90.99 C 34.21 106.16 35.54 122.30 43.13 135.84 C 52.62 153.09 70.86 164.69 90.15 167.60 C 112.19 171.25 135.55 165.88 153.59 152.64 C 157.18 150.33 160.36 146.56 164.94 146.51 C 168.56 147.60 170.38 152.01 169.42 155.51 C 168.74 158.39 166.20 160.23 164.08 162.06 C 145.28 177.08 121.04 185.51 96.96 184.55 C 85.62 183.21 74.11 181.27 63.76 176.19 C 46.45 168.03 33.20 152.56 26.11 134.96 C 20.07 120.14 19.09 103.69 21.01 87.93 C 25.08 57.25 47.76 29.77 77.29 20.35 M 102.45 68.62 C 98.21 69.72 94.76 72.71 92.11 76.08 C 86.09 84.22 82.50 94.05 81.18 104.04 C 80.22 110.26 81.04 117.08 84.54 122.42 C 88.37 127.96 96.90 127.92 101.85 123.95 C 106.67 120.07 109.21 114.15 111.49 108.56 C 114.66 99.74 118.02 90.68 117.84 81.17 C 117.85 77.02 116.35 72.63 112.93 70.07 C 109.96 67.82 105.92 67.87 102.45 68.62 Z" />
</g>
</svg>
