<?xml version="1.0" encoding="UTF-8" standalone="no"?>
<svg
   xmlns:dc="http://purl.org/dc/elements/1.1/"
   xmlns:cc="http://creativecommons.org/ns#"
   xmlns:rdf="http://www.w3.org/1999/02/22-rdf-syntax-ns#"
   xmlns:svg="http://www.w3.org/2000/svg"
   xmlns="http://www.w3.org/2000/svg"
   xmlns:sodipodi="http://sodipodi.sourceforge.net/DTD/sodipodi-0.dtd"
   xmlns:inkscape="http://www.inkscape.org/namespaces/inkscape"
   width="200pt"
   height="200pt"
   viewBox="0 0 200 200"
   version="1.1"
   id="svg2"
   inkscape:version="0.48.3.1 r9886"
   sodipodi:docname="05.svg">
  <metadata
     id="metadata13">
    <rdf:RDF>
      <cc:Work
         rdf:about="">
        <dc:format>image/svg+xml</dc:format>
        <dc:type
           rdf:resource="http://purl.org/dc/dcmitype/StillImage" />
      </cc:Work>
    </rdf:RDF>
  </metadata>
  <defs
     id="defs11" />
  <sodipodi:namedview
     pagecolor="#ffffff"
     bordercolor="#666666"
     borderopacity="1"
     objecttolerance="10"
     gridtolerance="10"
     guidetolerance="10"
     inkscape:pageopacity="0"
     inkscape:pageshadow="2"
     inkscape:window-width="1408"
     inkscape:window-height="778"
     id="namedview9"
     showgrid="false"
     inkscape:zoom="1.3350176"
     inkscape:cx="149.5718"
     inkscape:cy="139.4342"
     inkscape:window-x="2122"
     inkscape:window-y="111"
     inkscape:window-maximized="0"
     inkscape:current-layer="svg2" />
  <path
     id="path7"
     style="fill:#424242"
     d="m 45.22,119.99 c -0.26,-8.08 7.75,-15.09 15.72,-14.01 3.84,0.58 7.03,2.95 10.43,4.65 17.62,9.2 39.62,9.07 57.24,-0.07 3.93,-2.01 7.78,-4.85 12.4,-4.74 7.35,0.14 13.88,6.79 13.7,14.17 0.21,4.86 -2.57,9.48 -6.56,12.11 -8.62,5.46 -18.12,9.62 -28.16,11.56 0.47,1.21 1.15,2.34 2.09,3.24 8.35,8.32 16.7,16.64 25,25 2.72,2.62 4.28,6.32 4.09,10.11 -0.22,7.58 -7.46,14.52 -15.15,13.74 -5.2,0.04 -9.02,-3.93 -12.41,-7.36 -7.99,-7.69 -15.64,-15.73 -23.61,-23.44 -8.84,8.5 -17.35,17.35 -26.07,25.96 -2.68,2.6 -6.1,4.8 -9.95,4.84 -8.74,0.91 -16.72,-8.12 -14.92,-16.68 0.56,-4.01 3.42,-7.1 6.18,-9.82 7.24,-7.1 14.29,-14.39 21.54,-21.47 1.26,-1.19 2.32,-2.58 3.23,-4.04 -10.21,-2.25 -20.08,-6.17 -28.78,-11.99 -3.73,-2.66 -6.36,-7.08 -6.01,-11.76 z M 92.4,6.61 c 10.69,-1.41 21.93,0.13 31.31,5.64 16.24,8.75 26.07,27.49 24.9,45.77 -0.75,8.11 -3.02,16.25 -7.53,23.1 -8.8,14.16 -25.42,23.2 -42.12,22.55 C 85.12,103.64 71.51,97.01 62.7,86.38 55.97,78.82 52.65,68.83 51.47,58.93 50.45,45.2 55.14,30.79 64.94,20.94 72.17,13.31 82.03,8.26 92.4,6.61 m 5,27.84 C 87.39,35.49 79.29,45 79.55,55 c -0.13,9.1 6.53,17.84 15.43,19.89 6.14,1.7 13.05,0.09 17.91,-3.99 6.22,-4.96 9.03,-13.77 6.84,-21.42 C 117.29,39.9 107.28,32.9 97.4,34.45 z" />
</svg>
