<?xml version="1.0" encoding="UTF-8" ?>
<!DOCTYPE svg PUBLIC "-//W3C//DTD SVG 1.1//EN" "http://www.w3.org/Graphics/SVG/1.1/DTD/svg11.dtd">
<svg width="200pt" height="200pt" viewBox="0 0 200 200" version="1.1" xmlns="http://www.w3.org/2000/svg">
<g id="#424242ff">
<path fill="#424242" opacity="1.00" d=" M 90.12 15.23 C 106.38 12.76 123.85 14.29 138.24 22.78 C 153.45 32.02 165.09 48.09 166.50 66.12 C 167.39 80.38 165.16 95.03 159.00 107.99 C 152.76 120.99 142.01 132.57 127.90 136.83 C 118.67 139.55 108.14 140.16 99.37 135.61 C 95.42 133.66 92.49 130.30 89.06 127.64 C 85.24 138.44 83.98 150.00 79.71 160.66 C 77.04 167.56 73.16 173.90 69.04 180.02 C 67.20 182.69 65.21 185.42 62.32 187.05 C 60.20 174.59 59.68 161.67 62.14 149.22 C 66.04 132.47 69.82 115.69 74.05 99.02 C 75.85 93.25 72.43 87.77 72.15 82.05 C 71.19 73.16 73.34 63.37 80.14 57.14 C 84.66 52.73 92.06 51.27 97.67 54.39 C 102.36 57.09 104.66 62.74 104.29 68.00 C 103.57 80.29 97.49 91.38 95.33 103.37 C 94.18 108.89 96.11 114.89 100.57 118.42 C 108.43 124.78 120.67 122.35 127.35 115.35 C 136.58 105.80 140.73 92.49 142.30 79.56 C 142.88 71.25 143.38 62.56 140.37 54.61 C 136.73 44.17 127.70 35.80 117.04 32.85 C 106.95 29.97 96.07 30.17 85.95 32.85 C 68.97 37.46 55.76 52.82 53.01 70.10 C 52.13 76.66 51.88 83.58 54.11 89.92 C 55.50 93.97 58.57 97.15 60.09 101.13 C 60.17 105.53 59.00 110.12 56.66 113.88 C 52.26 114.22 48.43 111.45 45.26 108.73 C 37.24 101.53 34.16 90.45 33.33 80.05 C 31.99 64.72 38.42 49.67 48.07 38.04 C 58.39 25.27 74.16 17.86 90.12 15.23 Z" />
</g>
</svg>
