<?xml version="1.0" encoding="UTF-8" ?>
<!DOCTYPE svg PUBLIC "-//W3C//DTD SVG 1.1//EN" "http://www.w3.org/Graphics/SVG/1.1/DTD/svg11.dtd">
<svg width="200pt" height="200pt" viewBox="0 0 200 200" version="1.1" xmlns="http://www.w3.org/2000/svg">
<g id="#424242ff">
<path fill="#424242" opacity="1.00" d=" M 38.12 20.06 C 63.77 33.22 89.00 47.22 114.50 60.70 C 119.32 63.18 123.88 66.16 128.92 68.19 C 134.38 63.20 138.75 57.18 143.99 51.98 C 148.28 47.63 151.78 42.51 156.46 38.55 C 161.69 38.29 167.35 37.48 172.21 39.92 C 180.78 43.80 189.35 47.67 197.96 51.45 C 187.25 55.17 176.11 57.66 165.41 61.46 C 163.91 68.87 163.31 76.42 162.18 83.89 C 161.82 85.67 160.29 86.86 159.14 88.15 C 146.18 100.83 133.60 113.92 120.46 126.41 C 113.05 127.34 105.48 126.20 98.02 126.74 C 95.86 128.53 95.62 131.59 94.60 134.05 C 93.08 139.31 90.48 144.16 88.79 149.35 C 88.03 159.67 89.05 170.04 88.69 180.37 C 79.31 177.16 69.68 174.74 60.12 172.14 C 61.28 167.73 64.18 164.09 66.29 160.11 C 73.98 146.47 81.69 132.84 89.36 119.19 C 91.13 115.83 93.69 112.64 93.82 108.69 C 68.35 94.66 43.21 80.06 17.78 65.96 C 12.96 63.32 8.07 60.80 3.51 57.72 C 26.99 60.77 50.40 64.28 73.86 67.48 C 73.68 66.09 73.17 64.85 72.32 63.76 C 60.93 49.18 49.53 34.61 38.12 20.06 Z" />
</g>
</svg>
