<?xml version="1.0" encoding="UTF-8" ?>
<!DOCTYPE svg PUBLIC "-//W3C//DTD SVG 1.1//EN" "http://www.w3.org/Graphics/SVG/1.1/DTD/svg11.dtd">
<svg width="200pt" height="200pt" viewBox="0 0 200 200" version="1.1" xmlns="http://www.w3.org/2000/svg">
<g id="#424242ff">
<path fill="#424242" opacity="1.00" d=" M 106.13 44.17 C 115.17 32.58 131.90 28.36 145.54 33.54 C 150.33 35.27 154.35 38.53 158.04 41.95 C 165.64 40.79 172.68 37.61 179.69 34.60 C 178.65 37.46 177.55 40.34 175.78 42.84 C 173.20 46.61 169.40 49.28 166.43 52.71 C 172.60 52.25 178.41 49.98 184.27 48.15 C 180.64 53.44 176.24 58.21 171.27 62.27 C 170.08 63.32 168.73 64.27 167.87 65.64 C 167.40 70.08 167.57 74.57 167.19 79.02 C 165.02 100.76 156.10 122.06 140.88 137.89 C 128.26 150.61 112.66 160.79 95.12 165.14 C 75.58 169.98 54.53 169.44 35.54 162.51 C 29.45 160.22 23.31 157.74 18.13 153.74 C 26.79 153.48 35.62 153.39 44.00 150.90 C 52.44 148.39 60.56 144.47 67.35 138.81 C 59.33 137.86 51.19 135.48 45.22 129.78 C 40.62 125.89 37.61 120.57 35.23 115.13 C 39.65 115.26 44.11 115.44 48.49 114.69 C 46.91 112.26 43.83 111.81 41.46 110.47 C 30.27 104.75 23.11 92.46 23.04 79.95 C 27.87 81.88 32.83 83.77 38.12 83.83 C 34.38 80.28 30.22 77.00 27.67 72.42 C 21.49 61.99 21.81 48.43 27.59 37.90 C 32.59 43.03 37.10 48.68 42.86 53.02 C 58.61 65.96 78.80 73.31 99.17 73.61 C 97.07 63.38 99.34 52.23 106.13 44.17 Z" />
</g>
</svg>
