<?xml version="1.0" encoding="UTF-8" ?>
<!DOCTYPE svg PUBLIC "-//W3C//DTD SVG 1.1//EN" "http://www.w3.org/Graphics/SVG/1.1/DTD/svg11.dtd">
<svg width="200pt" height="200pt" viewBox="0 0 200 200" version="1.1" xmlns="http://www.w3.org/2000/svg">
<g id="#424242ff">
<path fill="#424242" opacity="1.00" d=" M 44.25 21.50 C 62.51 21.49 80.76 21.50 99.02 21.50 C 111.72 21.74 125.12 24.52 135.06 32.92 C 143.05 39.45 147.29 49.75 147.50 59.94 C 147.79 66.49 147.13 73.23 144.35 79.24 C 141.41 85.90 135.94 91.14 129.74 94.81 C 137.58 97.56 145.13 102.16 149.62 109.35 C 155.74 118.90 156.11 130.91 154.50 141.81 C 152.73 153.53 146.04 164.55 135.89 170.83 C 125.81 177.18 113.77 179.63 102.00 180.00 C 82.75 180.00 63.50 180.01 44.25 179.99 C 44.25 127.16 44.24 74.33 44.25 21.50 M 79.25 83.99 C 87.72 83.63 96.72 85.25 104.70 81.65 C 115.06 77.02 115.23 58.70 103.91 55.16 C 95.97 52.61 87.46 53.80 79.26 53.50 C 79.23 63.66 79.26 73.83 79.25 83.99 M 79.25 112.76 C 79.24 124.50 79.25 136.25 79.25 147.99 C 86.52 147.94 93.80 148.14 101.08 147.90 C 107.15 147.52 113.98 145.92 117.67 140.63 C 123.04 132.40 121.10 118.73 111.18 114.90 C 100.97 111.19 89.87 113.31 79.25 112.76 Z" />
</g>
</svg>
