<?xml version="1.0" encoding="UTF-8" ?>
<!DOCTYPE svg PUBLIC "-//W3C//DTD SVG 1.1//EN" "http://www.w3.org/Graphics/SVG/1.1/DTD/svg11.dtd">
<svg width="200pt" height="200pt" viewBox="0 0 200 200" version="1.1" xmlns="http://www.w3.org/2000/svg">
<g id="#414141f9">
<path fill="#414141" opacity="0.98" d=" M 108.44 12.55 C 122.94 11.66 137.66 11.16 152.10 13.17 C 151.73 71.70 152.35 130.23 151.79 188.75 C 144.82 188.96 137.84 189.18 130.87 188.96 C 128.81 167.03 130.50 144.94 130.00 122.94 C 126.34 123.01 119.02 123.15 115.36 123.22 C 102.00 145.23 88.19 166.97 74.86 189.01 C 66.40 188.95 57.91 189.16 49.46 188.56 C 51.35 183.72 54.30 179.41 57.10 175.08 C 69.29 156.95 81.77 138.99 93.36 120.47 C 83.70 115.41 73.53 110.07 67.07 100.95 C 53.99 83.93 54.99 59.63 64.14 41.05 C 72.21 24.17 90.35 14.36 108.44 12.55 M 92.19 36.19 C 78.37 51.33 78.04 75.39 86.96 93.05 C 92.20 100.09 100.06 105.30 108.60 107.40 C 115.69 108.26 122.87 108.01 130.00 108.20 C 130.00 81.03 130.01 53.87 129.99 26.70 C 116.91 26.67 102.32 26.28 92.19 36.19 Z" />
</g>
</svg>
